<?xml version="1.0" encoding="utf-8"?>
<!-- Generator: Adobe Illustrator 19.0.0, SVG Export Plug-In . SVG Version: 6.00 Build 0)  -->
<svg version="1.1" id="Layer_1" xmlns="http://www.w3.org/2000/svg" xmlns:xlink="http://www.w3.org/1999/xlink" x="0px" y="0px"
	 viewBox="0 0 512 512" style="enable-background:new 0 0 512 512;" xml:space="preserve">
<g id="XMLID_1_">
	<path fill="#262626" id="XMLID_3_" d="M185.5,0H99.6C83.9,0,71.3,12.6,71.3,28.4v455.3c0,15.8,12.6,28.4,28.4,28.4h85.9
		c15.8,0,28.4-12.6,28.4-28.4V28.4C213.8,12.6,201.2,0,185.5,0z"/>
	<path fill="#262626" id="XMLID_4_" d="M413.1,0h-85.9c-15.8,0-28.4,12.6-28.4,28.4v455.3c0,15.8,12.6,28.4,28.4,28.4h85.1
		c15.8,0,28.4-12.6,28.4-28.4V28.4C441.5,12.6,428.1,0,413.1,0z"/>
</g>
</svg>
