<svg id="Layer_1" data-name="Layer 1" xmlns="http://www.w3.org/2000/svg" viewBox="0 0 508.01 576.53"><defs><style>.cls-1{fill:#272727;}.cls-2{fill:#454545;}.cls-3{fill:#fff;}.cls-4{fill:none;stroke:#454545;stroke-miterlimit:10;}</style></defs><rect class="cls-1" x="187.01" width="126" height="45" rx="11.69"/><rect class="cls-1" x="222.01" y="36" width="58" height="50"/><rect class="cls-1" x="544.11" y="127.38" width="76.18" height="29.95" rx="9.19" transform="translate(27.78 -374.47) rotate(36.36)"/><rect class="cls-1" x="546.86" y="148.11" width="33.92" height="37.57" transform="translate(39.63 -359.45) rotate(36.47)"/><path class="cls-1" d="M678,378c.66,145.91-127.3,264.45-271,255-131-8.62-238-121.22-237-255.5C171,240.25,284.41,125,424,125,564.31,125,677.38,241.45,678,378Z" transform="translate(-169.99 -57)"/><ellipse class="cls-2" cx="253.01" cy="321.5" rx="223" ry="222.5"/><circle class="cls-3" cx="253.51" cy="321.5" r="208.5"/><path class="cls-2" d="M430.5,547v28a5.51,5.51,0,0,1-5.5,5.5h-2a5.51,5.51,0,0,1-5.5-5.5V547a5.49,5.49,0,0,1,5.5-5.48h2A5.49,5.49,0,0,1,430.5,547Z" transform="translate(-169.99 -57)"/><path class="cls-2" d="M430.5,182v28a5.51,5.51,0,0,1-5.5,5.5h-2a5.51,5.51,0,0,1-5.5-5.5V182a5.49,5.49,0,0,1,5.5-5.48h2A5.49,5.49,0,0,1,430.5,182Z" transform="translate(-169.99 -57)"/><path class="cls-2" d="M585,377.7a5.5,5.5,0,0,1,5.55-5.45l28,.25a5.5,5.5,0,0,1,5.44,5.55v2a5.49,5.49,0,0,1-5.54,5.45l-28-.25A5.49,5.49,0,0,1,585,379.7Z" transform="translate(-169.99 -57)"/><path class="cls-2" d="M256.44,386.5l-28-.25A5.5,5.5,0,0,1,223,380.7l0-2a5.49,5.49,0,0,1,5.54-5.45l28,.25a5.5,5.5,0,0,1,5.45,5.55v2A5.5,5.5,0,0,1,256.44,386.5Z" transform="translate(-169.99 -57)"/><path class="cls-4" d="M155.5,264.5" transform="translate(-169.99 -57)"/><rect class="cls-2" x="328.07" y="203.24" width="9.55" height="34.22" rx="4.51" transform="translate(-234.59 126.22) rotate(-28.17)"/><rect class="cls-2" x="262.73" y="271.14" width="9.55" height="34.22" rx="4.51" transform="translate(-287.72 310.25) rotate(-58.73)"/><rect class="cls-2" x="498.39" y="215.47" width="34.22" height="9.55" rx="4.51" transform="translate(-101.65 501.33) rotate(-60.23)"/><rect class="cls-2" x="565.39" y="282.47" width="34.22" height="9.55" rx="4.51" transform="translate(-231.67 313.08) rotate(-33.58)"/><rect class="cls-2" x="578.73" y="452.14" width="9.55" height="34.22" rx="4.51" transform="translate(-282.85 687.49) rotate(-60.37)"/><rect class="cls-2" x="511.73" y="518.14" width="9.55" height="34.22" rx="4.51" transform="translate(-371.09 282.49) rotate(-30.76)"/><rect class="cls-2" x="249.39" y="465.47" width="34.22" height="9.55" rx="4.51" transform="translate(-368.87 138.33) rotate(-29.89)"/><rect class="cls-2" x="316.39" y="531.47" width="34.22" height="9.55" rx="4.51" transform="translate(-467.98 477.4) rotate(-57.95)"/></svg>